<mxfile host="app.diagrams.net" modified="2024-05-09T06:04:53.530Z" agent="Mozilla/5.0 (Windows NT 10.0; Win64; x64; rv:125.0) Gecko/20100101 Firefox/125.0" version="24.3.0" etag="e5vKna6zqFugNfH8qpRM" type="github">
  <diagram name="第 1 页" id="OncRhPPM6AxgXki8YWJV">
    <mxGraphModel>
      <root>
        <mxCell id="0" />
        <mxCell id="1" parent="0" />
      </root>
    </mxGraphModel>
  </diagram>
</mxfile>
